<svg xmlns="http://www.w3.org/2000/svg" viewBox="0 0 1600 780" width="1600" height="780">
	<style>
		tspan { white-space:pre }
		.shp0 { fill: #fafbfb } 
		.shp1 { opacity: 0.8;fill: #ebf9fb } 
		.shp2 { opacity: 0.702;fill: #ebf9fb } 
	</style>
	<g id="unlimited customization">
		<g id="bg">
			<path id="BG" class="shp0" d="M0 -0.01L1600 -0.01L1600 779.99L0 779.99L0 -0.01Z" />
			<path id="Shape 1" class="shp1" d="M668.98 94.73L600.17 129.42C583.99 137.58 565.36 133.24 558.55 119.74C551.75 106.24 559.34 88.69 575.52 80.53L614.85 60.7C631.03 52.55 637.2 32.16 628.63 15.16C620.06 -1.84 599.99 -9.01 583.82 -0.86L613.3 -15.72C629.48 -23.87 635.64 -44.27 627.07 -61.27C618.5 -78.27 598.44 -85.43 582.27 -77.28L500.54 -36.08C484.37 -27.92 478.2 -7.53 486.77 9.47C495.34 26.47 515.4 33.64 531.58 25.48L397.76 92.94C413.94 84.79 420.1 64.4 411.53 47.4C402.96 30.4 382.9 23.23 366.72 31.38L289.61 70.26C290.27 69.93 290.9 69.55 291.52 69.17C278.63 74.35 263.43 68.4 256.75 55.14C250.06 41.88 254.31 26.12 266.15 18.84C265.47 19.11 264.8 19.39 264.13 19.72L316.85 -6.85C333.02 -15.01 339.19 -35.4 330.62 -52.4C322.05 -69.4 301.99 -76.57 285.81 -68.41L260.39 -55.6C276.57 -63.75 282.74 -84.15 274.17 -101.14C265.6 -118.14 245.54 -125.31 229.36 -117.16L158.17 -81.27C142 -73.11 135.83 -52.72 144.4 -35.72C152.97 -18.72 173.03 -11.56 189.21 -19.71L119.73 15.31C103.55 23.47 97.39 43.86 105.96 60.86C114.53 77.86 134.59 85.03 150.77 76.87L182.46 60.89C182.26 61 182.08 61.12 181.88 61.23C195.06 55.01 211.13 60.9 218.06 74.64C224.99 88.39 220.16 104.81 207.33 111.7C207.53 111.61 207.74 111.53 207.94 111.43L133.02 149.2C116.85 157.36 110.68 177.75 119.25 194.75C127.82 211.75 147.88 218.92 164.06 210.76L276.76 153.95C260.58 162.1 254.41 182.49 262.98 199.49C271.55 216.49 291.61 223.66 307.79 215.51L372.98 182.64C389.16 174.49 407.79 178.82 414.59 192.32C421.4 205.82 413.8 223.38 397.63 231.53L355.99 252.52C339.81 260.68 333.64 281.07 342.21 298.07C350.78 315.07 370.85 322.24 387.02 314.08L572.81 220.42C556.63 228.58 550.47 248.97 559.04 265.97L559.04 265.97C567.61 282.96 587.67 290.13 603.85 281.98L685.57 240.78C701.74 232.62 707.91 212.23 699.34 195.23L699.34 195.23C690.77 178.23 670.71 171.06 654.53 179.22L700.02 156.29C716.19 148.13 722.36 127.74 713.79 110.74C705.22 93.74 685.16 86.57 668.98 94.73Z" />
			<path id="Shape 1 copy" class="shp2" d="M1712.93 671.97L1629.42 714.03C1609.79 723.91 1587.18 718.66 1578.92 702.29C1570.66 685.93 1579.88 664.64 1599.51 654.76L1647.25 630.72C1666.88 620.83 1674.36 596.11 1663.96 575.5C1653.56 554.89 1629.22 546.2 1609.58 556.09L1645.36 538.07C1664.99 528.18 1672.48 503.46 1662.08 482.85C1651.68 462.24 1627.33 453.55 1607.7 463.44L1508.53 513.38C1488.9 523.27 1481.41 547.99 1491.81 568.6C1502.21 589.21 1526.56 597.9 1546.19 588.01L1383.8 669.8C1403.43 659.91 1410.91 635.19 1400.51 614.58C1390.11 593.98 1365.77 585.28 1346.14 595.17L1252.56 642.3C1253.36 641.9 1254.12 641.44 1254.87 640.98C1239.23 647.26 1220.79 640.04 1212.67 623.97C1204.56 607.89 1209.72 588.79 1224.08 579.96C1223.26 580.29 1222.44 580.63 1221.64 581.03L1285.61 548.82C1305.24 538.93 1312.72 514.21 1302.32 493.6C1291.92 472.99 1267.58 464.3 1247.94 474.19L1217.1 489.72C1236.73 479.83 1244.21 455.11 1233.81 434.5C1223.41 413.89 1199.07 405.2 1179.44 415.09L1093.05 458.6C1073.42 468.48 1065.94 493.21 1076.34 513.81C1086.74 534.42 1111.08 543.11 1130.72 533.23L1046.4 575.69C1026.77 585.58 1019.29 610.3 1029.69 630.91C1040.09 651.52 1064.43 660.21 1084.07 650.32L1122.53 630.95C1122.28 631.07 1122.07 631.22 1121.83 631.35C1137.81 623.81 1157.32 630.95 1165.73 647.61C1174.14 664.28 1168.28 684.19 1152.71 692.54C1152.95 692.43 1153.2 692.34 1153.45 692.22L1062.53 738.01C1042.9 747.89 1035.42 772.61 1045.82 793.22C1056.22 813.83 1080.56 822.52 1100.19 812.64L1236.96 743.76C1217.32 753.64 1209.84 778.37 1220.24 798.97C1230.64 819.58 1254.99 828.27 1274.62 818.39L1353.73 778.55C1373.36 768.66 1395.97 773.91 1404.23 790.28C1412.49 806.65 1403.27 827.93 1383.64 837.82L1333.11 863.26C1313.48 873.15 1305.99 897.87 1316.39 918.48C1326.79 939.09 1351.14 947.78 1370.77 937.89L1596.23 824.34C1576.6 834.23 1569.11 858.95 1579.51 879.56L1579.51 879.56C1589.91 900.17 1614.26 908.86 1633.89 898.97L1733.06 849.03C1752.69 839.14 1760.17 814.42 1749.77 793.81L1749.77 793.81C1739.37 773.2 1715.03 764.51 1695.4 774.4L1750.59 746.6C1770.23 736.71 1777.71 711.99 1767.31 691.38C1756.91 670.77 1732.56 662.08 1712.93 671.97Z" />
			<path id="Shape 1 copy 2" class="shp1" d="M1642.23 105.45L1585.99 133.73C1572.78 140.38 1557.55 136.85 1551.99 125.84C1546.43 114.84 1552.64 100.53 1565.85 93.88L1597.99 77.71C1611.21 71.07 1616.25 54.44 1609.25 40.59C1602.25 26.73 1585.85 20.89 1572.64 27.53L1596.73 15.42C1609.95 8.77 1614.98 -7.85 1607.98 -21.71C1600.98 -35.57 1584.59 -41.41 1571.37 -34.76L1504.59 -1.18C1491.37 5.47 1486.33 22.09 1493.33 35.95C1500.34 49.81 1516.73 55.65 1529.95 49L1420.6 104C1433.82 97.35 1438.86 80.73 1431.85 66.87C1424.85 53.01 1408.46 47.17 1395.24 53.81L1332.23 85.5C1332.77 85.23 1333.28 84.93 1333.79 84.61C1323.25 88.84 1310.84 83.99 1305.37 73.18C1299.91 62.37 1303.39 49.52 1313.05 43.59C1312.5 43.81 1311.95 44.04 1311.41 44.31L1354.48 22.65C1367.7 16 1372.74 -0.62 1365.74 -14.48C1358.73 -28.34 1342.34 -34.18 1329.12 -27.54L1308.35 -17.09C1321.57 -23.74 1326.61 -40.36 1319.61 -54.22C1312.6 -68.07 1296.21 -73.92 1282.99 -67.27L1224.83 -38.02C1211.61 -31.37 1206.57 -14.75 1213.57 -0.89C1220.57 12.97 1236.97 18.81 1250.18 12.16L1193.41 40.72C1180.19 47.36 1175.15 63.99 1182.16 77.84C1189.16 91.7 1205.55 97.54 1218.77 90.9L1244.67 77.87C1244.51 77.95 1244.36 78.06 1244.2 78.14C1254.96 73.07 1268.1 77.87 1273.76 89.08C1279.42 100.28 1275.48 113.67 1264.99 119.29C1265.16 119.21 1265.33 119.15 1265.49 119.07L1204.27 149.86C1191.05 156.5 1186.02 173.13 1193.02 186.98C1200.02 200.84 1216.41 206.69 1229.63 200.04L1321.72 153.72C1308.5 160.37 1303.46 176.99 1310.47 190.85C1317.47 204.71 1333.86 210.55 1347.08 203.9L1400.35 177.11C1413.57 170.47 1428.79 174 1434.36 185C1439.92 196.01 1433.71 210.32 1420.49 216.97L1386.47 234.08C1373.25 240.73 1368.21 257.35 1375.21 271.21C1382.21 285.06 1398.61 290.91 1411.83 284.26L1563.64 207.91C1550.42 214.56 1545.38 231.18 1552.39 245.04L1552.39 245.04C1559.39 258.89 1575.78 264.74 1589 258.09L1655.78 224.51C1669 217.86 1674.04 201.24 1667.03 187.38L1667.03 187.38C1660.03 173.52 1643.64 167.68 1630.42 174.33L1667.59 155.63C1680.81 148.99 1685.84 132.36 1678.84 118.51C1671.84 104.65 1655.45 98.8 1642.23 105.45Z" />
		</g>
	</g>
</svg>