<svg xmlns="http://www.w3.org/2000/svg" viewBox="0 0 41 43" width="41" height="43">
	<defs>
		<linearGradient id="grd1" gradientUnits="userSpaceOnUse"  x1="8.405" y1="32.781" x2="32.595" y2="10.223">
			<stop offset="0" stop-color="#6af3f9"  />
			<stop offset="1" stop-color="#2eafeb"  />
		</linearGradient>
	</defs>
	<style>
		tspan { white-space:pre }
		.shp0 { fill: url(#grd1) } 
	</style>
	<g id="other services">
		<g id="bonus">
			<g id="icon" style="opacity: 0.8">
				<path id="Gift" class="shp0" d="M38.27 25.54L38.27 40.31C38.27 41.8 37.04 43 35.53 43L5.47 43C3.96 43 2.73 41.8 2.73 40.31L2.73 25.54C1.22 25.54 0 24.34 0 22.86L0 16.14C0 14.66 1.22 13.46 2.73 13.46L15.61 13.46C13.12 13.29 10.75 12.46 8.73 11.1C8.77 11.09 8.8 11.08 8.84 11.06C7.11 10.1 5.77 8.48 5.29 6.43C5.18 5.97 5.14 5.52 5.12 5.07C5.1 4.81 5.1 4.56 5.12 4.3C5.12 4.3 5.12 4.29 5.12 4.28C5.14 4.08 5.16 3.89 5.21 3.71C5.29 3.21 5.4 2.73 5.57 2.27C5.86 1.97 6.17 1.71 6.5 1.46C7.07 0.93 7.77 0.53 8.59 0.34C8.69 0.32 8.78 0.32 8.88 0.3C9.01 0.27 9.13 0.22 9.26 0.19C11.91 -0.41 14.54 0.5 16.28 2.33C16.28 2.32 16.28 2.31 16.28 2.3C18.1 4.05 19.46 6.31 20.08 8.93C20.12 9.1 20.13 9.26 20.16 9.43L20.84 9.43C20.87 9.26 20.88 9.1 20.92 8.93C21.54 6.31 22.89 4.05 24.72 2.3C24.72 2.31 24.72 2.32 24.72 2.33C26.46 0.5 29.09 -0.41 31.74 0.19C31.87 0.22 31.99 0.27 32.12 0.3C32.21 0.32 32.31 0.32 32.41 0.34C33.23 0.53 33.93 0.93 34.5 1.46C34.83 1.71 35.14 1.97 35.43 2.27C35.6 2.73 35.71 3.21 35.79 3.71C35.84 3.89 35.86 4.08 35.88 4.28C35.88 4.29 35.88 4.3 35.88 4.3C35.9 4.56 35.9 4.81 35.88 5.07C35.86 5.52 35.82 5.97 35.71 6.43C35.23 8.48 33.89 10.1 32.16 11.06C32.2 11.08 32.23 11.09 32.27 11.1C30.25 12.46 27.88 13.29 25.39 13.46L38.27 13.46C39.78 13.46 41 14.66 41 16.14L41 22.86C41 24.34 39.78 25.54 38.27 25.54ZM23.23 40.31L34.17 40.31C34.92 40.31 35.53 39.71 35.53 38.97L35.53 25.54C35.53 24.8 34.92 24.2 34.17 24.2L23.23 24.2L23.23 40.31ZM16.74 8.18C16.26 6.74 15.38 5.46 14.26 4.43C14.26 4.44 14.26 4.44 14.26 4.45C13.19 3.38 11.65 2.76 10.18 2.96C10.11 2.97 10.04 2.99 9.97 3C9.92 3.01 9.86 3 9.81 3.01C9.36 3.07 8.98 3.25 8.68 3.51C8.51 3.63 8.34 3.76 8.2 3.9C8.12 4.14 8.08 4.4 8.06 4.66C8.05 4.76 8.04 4.86 8.04 4.96C8.04 4.97 8.04 4.97 8.04 4.98C8.04 5.11 8.06 5.25 8.08 5.39C8.11 5.63 8.16 5.88 8.24 6.13C8.62 7.25 9.46 8.19 10.48 8.79C10.46 8.79 10.45 8.8 10.43 8.81C12.27 10.07 14.54 10.72 16.72 10.43C16.86 10.41 16.99 10.38 17.12 10.36C17.11 9.65 16.99 8.92 16.74 8.18ZM17.77 13.44C17.65 13.45 17.53 13.45 17.42 13.46L17.77 13.46L17.77 13.44ZM17.77 16.14L4.1 16.14C3.35 16.14 2.73 16.75 2.73 17.49L2.73 21.52C2.73 22.26 3.35 22.86 4.1 22.86L17.77 22.86L17.77 16.14ZM17.77 24.2L6.83 24.2C6.08 24.2 5.47 24.8 5.47 25.54L5.47 38.97C5.47 39.71 6.08 40.31 6.83 40.31L17.77 40.31L17.77 24.2ZM19.13 13.46L19.13 41.66L21.87 41.66L21.87 13.46L19.13 13.46ZM30.57 8.81C30.55 8.8 30.54 8.79 30.52 8.79C31.54 8.19 32.38 7.25 32.75 6.13C32.84 5.88 32.89 5.63 32.92 5.39C32.94 5.25 32.96 5.11 32.96 4.98C32.96 4.97 32.96 4.97 32.96 4.96C32.96 4.86 32.95 4.76 32.94 4.66C32.92 4.4 32.88 4.14 32.8 3.9C32.66 3.76 32.49 3.63 32.32 3.51C32.02 3.25 31.64 3.07 31.19 3.01C31.14 3 31.08 3.01 31.03 3C30.96 2.99 30.89 2.97 30.82 2.96C29.35 2.76 27.81 3.38 26.74 4.45C26.74 4.44 26.74 4.44 26.74 4.43C25.62 5.46 24.74 6.74 24.26 8.18C24.01 8.92 23.89 9.65 23.88 10.36C24.01 10.38 24.14 10.41 24.28 10.43C26.46 10.72 28.72 10.07 30.57 8.81ZM23.23 13.44L23.23 13.46L23.58 13.46C23.47 13.45 23.35 13.45 23.23 13.44ZM38.27 17.49C38.27 16.75 37.65 16.14 36.9 16.14L23.23 16.14L23.23 22.86L36.9 22.86C37.65 22.86 38.27 22.26 38.27 21.52L38.27 17.49Z" />
			</g>
		</g>
	</g>
</svg>