<svg xmlns="http://www.w3.org/2000/svg" viewBox="0 0 45 40" width="45" height="40">
	<defs>
		<linearGradient id="grd1" gradientUnits="userSpaceOnUse"  x1="9.846" y1="31.8" x2="35.154" y2="8.199">
			<stop offset="0" stop-color="#6af3f9"  />
			<stop offset="1" stop-color="#2eafeb"  />
		</linearGradient>
	</defs>
	<style>
		tspan { white-space:pre }
		.shp0 { fill: url(#grd1) } 
	</style>
	<g id="other services">
		<g id="free shopping">
			<g id="icon" style="opacity: 0.8">
				<path id="Cart" class="shp0" d="M42.19 24.83C42.19 24.83 29.2 24.92 21.33 25.73C17.64 26.11 14.17 27.12 13.06 27.46L13.5 30.34L40.78 30.34C41.56 30.34 42.19 30.96 42.19 31.72C42.19 32.49 41.56 33.1 40.78 33.1L13.54 33.1C11.98 33.1 10.72 31.87 10.72 30.34L10.37 28.27L9.95 25.55C9.89 25.32 9.84 25.08 9.84 24.83L7.03 5.52L6.56 2.76L1.41 2.76C0.63 2.76 0 2.14 0 1.38C0 0.62 0.63 0 1.41 0L7.03 0C7.16 0 7.27 0.04 7.38 0.07C7.5 0.04 7.61 0 7.73 0C8.51 0 9.14 0.62 9.14 1.38L9.38 2.8C9.53 2.78 9.69 2.76 9.84 2.76L42.19 2.76C43.74 2.76 45 3.99 45 5.52L45 22.07C45 23.59 43.74 24.83 42.19 24.83ZM42.19 6.9C42.19 6.13 41.56 5.52 40.78 5.52L11.6 5.52C10.82 5.52 10.2 6.13 10.2 6.9L12.54 22.99C12.54 23.75 13.17 24.37 13.95 24.37C13.95 24.37 16.22 23.41 20.4 22.93C27.41 22.12 40.78 22.07 40.78 22.07C41.56 22.07 42.19 21.45 42.19 20.69L42.19 6.9ZM16.87 34.48C18.43 34.48 19.69 35.72 19.69 37.24C19.69 38.76 18.43 40 16.87 40C15.32 40 14.06 38.76 14.06 37.24C14.06 35.72 15.32 34.48 16.87 34.48ZM16.87 38.62C17.65 38.62 18.28 38 18.28 37.24C18.28 36.48 17.65 35.86 16.87 35.86C16.1 35.86 15.47 36.48 15.47 37.24C15.47 38 16.1 38.62 16.87 38.62ZM36.56 34.48C38.12 34.48 39.37 35.72 39.37 37.24C39.37 38.76 38.12 40 36.56 40C35.01 40 33.75 38.76 33.75 37.24C33.75 35.72 35.01 34.48 36.56 34.48ZM36.56 38.62C37.34 38.62 37.97 38 37.97 37.24C37.97 36.48 37.34 35.86 36.56 35.86C35.79 35.86 35.16 36.48 35.16 37.24C35.16 38 35.79 38.62 36.56 38.62Z" />
			</g>
		</g>
	</g>
</svg>