<svg xmlns="http://www.w3.org/2000/svg" viewBox="0 0 46 33" width="46" height="33">
	<defs>
		<linearGradient id="grd1" gradientUnits="userSpaceOnUse"  x1="12.56" y1="26.234" x2="33.439" y2="6.764">
			<stop offset="0" stop-color="#6af3f9"  />
			<stop offset="1" stop-color="#2eafeb"  />
		</linearGradient>
	</defs>
	<style>
		tspan { white-space:pre }
		.shp0 { fill: url(#grd1) } 
	</style>
	<g id="other services">
		<g id="game">
			<g id="icon" style="opacity: 0.8">
				<path id="Game" class="shp0" d="M41.69 33C39.21 33 36.12 28.67 36.12 28.34C36.12 28.2 35.3 26.95 34.33 25.21C33.27 26.31 31.8 26.99 30.19 26.99C27.99 26.99 26.09 25.72 25.08 23.86L20.91 23.86C19.91 25.72 18.01 26.98 15.81 26.98C14.2 26.98 12.73 26.31 11.67 25.21C10.7 26.95 9.88 28.2 9.88 28.34C9.88 28.67 6.79 33 4.31 33C1.83 33 0 30.91 0 28.34C0 25.91 2.26 6.89 4.6 4.69C5.06 3.68 6.04 2.98 7.19 2.98L7.2 2.98C7.2 2.95 7.19 2.92 7.19 2.89C7.19 1.29 8.43 0 9.97 0L15.9 0C17.44 0 18.69 1.29 18.69 2.89C18.69 2.92 18.68 2.95 18.68 2.98L27.32 2.98C27.32 2.95 27.31 2.92 27.31 2.89C27.31 1.29 28.56 0 30.1 0L36.03 0C37.57 0 38.81 1.29 38.81 2.89C38.81 2.92 38.8 2.95 38.8 2.98L38.81 2.98C39.96 2.98 40.94 3.68 41.4 4.69C43.74 6.89 46 25.91 46 28.34C46 30.91 44.17 33 41.69 33ZM30.19 23.86C31.78 23.86 33.06 22.53 33.06 20.88C33.06 19.23 31.78 17.9 30.19 17.9C28.6 17.9 27.31 19.23 27.31 20.88C27.31 22.53 28.6 23.86 30.19 23.86ZM15.81 23.86C17.4 23.86 18.69 22.53 18.69 20.88C18.69 19.23 17.4 17.9 15.81 17.9C14.22 17.9 12.94 19.23 12.94 20.88C12.94 22.53 14.22 23.86 15.81 23.86ZM43.18 25.78C43.09 24.11 40.07 6.45 38.77 6.52C38.71 6.52 38.64 6.57 38.55 6.65C38.29 6.25 37.87 5.97 37.37 5.97L35.94 5.97L35.94 4.47C35.94 3.65 35.29 2.98 34.5 2.98L31.62 2.98C30.83 2.98 30.19 3.65 30.19 4.47L30.19 5.97L15.81 5.97L15.81 4.47C15.81 3.65 15.17 2.98 14.37 2.98L11.5 2.98C10.71 2.98 10.06 3.65 10.06 4.47L10.06 5.97L8.62 5.97C8.13 5.97 7.71 6.25 7.45 6.65C7.36 6.57 7.29 6.52 7.23 6.52C5.93 6.45 2.91 24.11 2.82 25.78C2.74 27.45 3.01 29.61 4.31 29.68C5.61 29.75 7.91 26.28 7.92 26.07C7.93 25.87 10.55 22.4 11.47 19.39C11.47 19.39 11.48 19.39 11.48 19.39C12.09 17.5 13.79 16.13 15.81 16.13C18.34 16.13 20.39 18.25 20.39 20.88C22.12 20.88 23.89 20.88 25.61 20.88C25.61 18.25 27.66 16.13 30.19 16.13C32.21 16.13 33.91 17.5 34.52 19.39C34.52 19.39 34.53 19.39 34.53 19.39C35.45 22.4 38.07 25.87 38.08 26.07C38.09 26.28 40.39 29.75 41.69 29.68C42.99 29.61 43.26 27.45 43.18 25.78ZM35.22 11.98C34 11.98 33.02 10.96 33.02 9.69C33.02 8.43 34 7.41 35.22 7.41C36.43 7.41 37.42 8.43 37.42 9.69C37.42 10.96 36.43 11.98 35.22 11.98ZM35.22 8.93C34.81 8.93 34.48 9.27 34.48 9.69C34.48 10.12 34.81 10.46 35.22 10.46C35.63 10.46 35.96 10.12 35.96 9.69C35.96 9.27 35.63 8.93 35.22 8.93ZM29.47 14.96C28.25 14.96 27.27 13.94 27.27 12.68C27.27 11.42 28.25 10.39 29.47 10.39C30.68 10.39 31.67 11.42 31.67 12.68C31.67 13.94 30.68 14.96 29.47 14.96ZM29.47 11.91C29.06 11.91 28.73 12.25 28.73 12.68C28.73 13.1 29.06 13.45 29.47 13.45C29.88 13.45 30.21 13.1 30.21 12.68C30.21 12.25 29.88 11.91 29.47 11.91ZM14.37 13.42L14.37 13.42C14.37 14.25 13.73 14.91 12.94 14.91L11.5 14.91C10.71 14.91 10.06 14.25 10.06 13.42L10.06 13.42L10.06 13.42C9.27 13.42 8.62 12.75 8.62 11.93L8.62 10.44C8.62 9.62 9.27 8.95 10.06 8.95L10.06 8.95C10.06 8.12 10.71 7.46 11.5 7.46L12.94 7.46C13.73 7.46 14.37 8.12 14.37 8.95C15.17 8.95 15.81 9.62 15.81 10.44L15.81 11.93C15.81 12.75 15.17 13.42 14.37 13.42ZM13.66 10.44L12.94 10.44L12.94 9.69C12.94 9.28 12.62 8.95 12.22 8.95C11.82 8.95 11.5 9.28 11.5 9.69L11.5 10.44L10.78 10.44C10.38 10.44 10.06 10.77 10.06 11.19C10.06 11.6 10.38 11.93 10.78 11.93L11.5 11.93L11.5 12.68C11.5 13.09 11.82 13.42 12.22 13.42C12.62 13.42 12.94 13.09 12.94 12.68L12.94 11.93L13.66 11.93C14.05 11.93 14.37 11.6 14.37 11.19C14.37 10.77 14.05 10.44 13.66 10.44Z" />
			</g>
		</g>
	</g>
</svg>