<svg xmlns="http://www.w3.org/2000/svg" viewBox="0 0 30 44" width="30" height="44">
	<defs>
		<linearGradient id="grd1" gradientUnits="userSpaceOnUse"  x1="6.15" y1="30.245" x2="23.85" y2="13.739">
			<stop offset="0" stop-color="#6af3f9"  />
			<stop offset="1" stop-color="#2eafeb"  />
		</linearGradient>
	</defs>
	<style>
		tspan { white-space:pre }
		.shp0 { fill: url(#grd1) } 
	</style>
	<g id="other services">
		<g id="idea developing">
			<g id="icon" style="opacity: 0.8">
				<path id="icon" class="shp0" d="M27.26 23.81C25.17 25.86 23.74 28.58 23.28 31.63L23.16 31.63C23.16 32.19 22.65 32.71 21.8 33.14L21.8 39.87C21.8 41.39 20.58 42.62 19.08 42.62L17.72 42.62C17.72 43.38 17.11 43.99 16.36 43.99L13.64 43.99C12.89 43.99 12.28 43.38 12.28 42.62L10.92 42.62C9.42 42.62 8.2 41.39 8.2 39.87L8.2 33.14C7.35 32.71 6.84 32.19 6.84 31.63L6.71 31.63C6.26 28.58 4.83 25.86 2.74 23.81C1.03 21.36 0 18.38 0 15.14C0 6.78 6.72 -0.01 15 -0.01C23.28 -0.01 30 6.78 30 15.14C30 18.38 28.97 21.36 27.26 23.81ZM12.28 39.87L17.72 39.87C18.47 39.87 19.08 39.26 19.08 38.5L19.08 38.02L12.27 39.87C12.27 39.87 12.28 39.87 12.28 39.87ZM10.92 38.2L19.08 36L19.08 34.59L10.92 36.8L10.92 38.2ZM10.92 34.77L17.45 33L12.28 33C11.53 33 10.92 33.62 10.92 34.38L10.92 34.77ZM15 2.93C8.3 2.93 2.86 8.42 2.86 15.19C2.86 18.69 4.33 21.83 6.66 24.06C6.43 23.84 6.2 23.62 5.99 23.39L5.87 23.39C7.17 25.01 8.18 26.88 8.79 28.93C9.07 29.05 9.35 29.16 9.64 29.27C9.69 29.45 9.77 29.61 9.89 29.75C9.67 29.91 9.53 30.08 9.53 30.26C9.53 31.05 11.98 31.7 15 31.7C18.02 31.7 20.47 31.05 20.47 30.26C20.47 30.08 20.33 29.91 20.11 29.75C20.22 29.61 20.31 29.45 20.36 29.27C20.65 29.16 20.93 29.05 21.21 28.93C21.82 26.88 22.83 25.01 24.13 23.39L24.01 23.39C23.8 23.62 23.57 23.84 23.34 24.06C25.67 21.83 27.14 18.69 27.14 15.19C27.14 8.42 21.7 2.93 15 2.93ZM21.82 15.14C21.81 11.34 18.77 8.26 15.01 8.25L15.01 6.75C19.59 6.77 23.29 10.52 23.3 15.14L21.82 15.14Z" />
			</g>
		</g>
	</g>
</svg>