<svg xmlns="http://www.w3.org/2000/svg" viewBox="0 0 1600 1040" width="1600" height="1040">
	<style>
		tspan { white-space:pre }
		.shp0 { fill: #42a8f6 } 
		.shp1 { opacity: 0.078;fill: #ffffff } 
	</style>
	<g id="header">
		<g id="BG">
			<path id="Rectangle 1 copy" class="shp0" d="M0 0L1600 0L1600 1040L0 1040L0 0Z" />
			<path id="Ellipse 3" class="shp1" d="M1103 419C1276.42 419 1417 559.58 1417 733C1417 906.42 1276.42 1047 1103 1047C929.58 1047 789 906.42 789 733C789 559.58 929.58 419 1103 419Z" />
			<path id="Ellipse 3 copy" class="shp1" d="M1103 284C1350.98 284 1552 485.02 1552 733C1552 980.98 1350.98 1182 1103 1182C855.02 1182 654 980.98 654 733C654 485.02 855.02 284 1103 284Z" />
			<path id="Ellipse 3 copy 2" class="shp1" d="M1103 117C1443.21 117 1719 392.79 1719 733C1719 1073.21 1443.21 1349 1103 1349C762.79 1349 487 1073.21 487 733C487 392.79 762.79 117 1103 117Z" />
			<path id="Ellipse 3 copy 3" class="shp1" d="M1103 -102C1564.16 -102 1938 271.84 1938 733C1938 1194.16 1564.16 1568 1103 1568C641.84 1568 268 1194.16 268 733C268 271.84 641.84 -102 1103 -102Z" />
		</g>
	</g>
</svg>